<?xml version="1.0" standalone="no"?>
<!DOCTYPE svg PUBLIC "-//W3C//DTD SVG 20010904//EN"
 "http://www.w3.org/TR/2001/REC-SVG-20010904/DTD/svg10.dtd">
<svg version="1.0" xmlns="http://www.w3.org/2000/svg"
 width="1893.000000pt" height="1893.000000pt" viewBox="0 0 1893.000000 1893.000000"
 preserveAspectRatio="xMidYMid meet">
<metadata>
Created by potrace 1.14, written by Peter Selinger 2001-2017
</metadata>
<g transform="translate(0.000000,1893.000000) scale(0.100000,-0.100000)"
fill="#000000" stroke="none">
<path d="M10188 18855 c-2 -2 -73 -6 -159 -9 -86 -4 -169 -9 -185 -11 -16 -2
-72 -6 -124 -10 -52 -3 -102 -8 -110 -10 -8 -2 -51 -7 -94 -10 -43 -4 -86 -8
-95 -10 -9 -1 -45 -6 -81 -10 -36 -4 -72 -9 -81 -10 -9 -2 -40 -6 -70 -10 -30
-4 -106 -15 -169 -26 -63 -11 -126 -22 -140 -24 -62 -10 -91 -16 -185 -35 -55
-11 -113 -23 -130 -26 -16 -3 -48 -9 -70 -15 -22 -5 -51 -12 -65 -15 -63 -13
-458 -116 -518 -135 -271 -84 -589 -191 -672 -226 -8 -3 -17 -7 -20 -7 -17 -5
-271 -108 -335 -136 -11 -5 -90 -40 -175 -79 -293 -131 -549 -263 -855 -441
-153 -89 -349 -212 -353 -222 -2 -4 -8 -8 -12 -8 -30 0 -739 -514 -795 -576
-5 -6 -32 -28 -60 -50 -27 -21 -56 -44 -63 -51 -7 -7 -33 -29 -59 -50 -25 -21
-61 -51 -78 -68 -18 -16 -68 -61 -111 -100 -157 -139 -465 -445 -624 -620 -35
-38 -66 -72 -70 -75 -3 -3 -48 -54 -100 -115 -52 -60 -97 -112 -100 -115 -20
-17 -295 -370 -387 -495 -319 -436 -557 -824 -803 -1310 -127 -251 -190 -386
-295 -630 -133 -309 -350 -944 -415 -1215 -6 -25 -12 -49 -14 -55 -13 -46 -26
-94 -30 -115 -3 -14 -12 -54 -21 -90 -9 -36 -19 -76 -21 -90 -3 -14 -12 -54
-20 -90 -17 -75 -44 -204 -50 -240 -3 -14 -7 -36 -9 -50 -3 -14 -8 -38 -10
-55 -3 -16 -10 -52 -15 -80 -5 -27 -12 -68 -15 -90 -3 -22 -10 -65 -15 -95 -5
-30 -12 -77 -16 -105 -3 -27 -8 -59 -10 -70 -2 -11 -7 -47 -10 -80 -8 -77 -10
-97 -19 -170 -11 -96 -14 -125 -20 -215 -4 -47 -8 -101 -10 -120 -32 -314 -32
-1123 0 -1430 2 -25 7 -81 10 -125 4 -44 8 -93 10 -110 2 -16 7 -57 10 -90 12
-127 39 -328 62 -465 8 -52 16 -104 18 -115 2 -23 15 -100 21 -130 3 -11 11
-54 19 -95 8 -41 17 -85 20 -98 2 -13 6 -31 9 -40 3 -9 8 -33 11 -52 3 -19 11
-55 16 -80 6 -25 13 -56 15 -69 7 -34 107 -419 134 -511 110 -385 296 -896
453 -1240 14 -30 35 -77 47 -105 29 -65 218 -444 257 -515 111 -202 171 -307
271 -470 88 -145 200 -319 212 -330 3 -3 10 -13 15 -22 28 -48 248 -355 317
-443 91 -116 284 -356 320 -396 26 -30 56 -65 68 -79 152 -177 484 -521 661
-685 193 -178 263 -240 416 -367 160 -134 469 -370 618 -473 39 -27 91 -63
117 -82 26 -18 52 -33 57 -33 5 0 11 -3 13 -8 4 -9 186 -127 323 -209 296
-178 668 -375 930 -492 185 -83 194 -87 295 -129 324 -136 760 -286 1065 -368
106 -28 349 -90 385 -98 63 -14 367 -78 385 -81 11 -2 29 -5 40 -8 11 -2 42
-8 68 -11 27 -4 59 -9 70 -12 12 -2 42 -7 67 -11 62 -11 2832 -10 2900 1 30 4
58 10 61 11 3 2 28 7 55 10 27 4 112 20 189 35 77 16 151 31 165 34 35 6 161
35 250 58 41 10 84 21 95 23 11 3 70 18 130 35 61 17 117 32 125 34 261 67
865 285 1170 423 30 13 87 38 125 56 82 37 473 233 560 280 171 95 225 126
270 155 11 6 27 15 35 19 8 3 41 24 72 45 31 21 59 38 62 38 3 0 52 30 108 67
57 38 108 70 113 73 53 27 505 351 630 452 6 5 20 17 33 27 13 11 42 34 64 53
75 60 302 251 347 293 25 22 74 67 110 100 79 72 431 422 484 483 269 302 518
597 516 611 0 3 -97 83 -216 176 -118 94 -220 175 -227 180 -6 6 -55 45 -109
88 -53 43 -137 112 -185 154 -48 41 -114 98 -147 127 -33 28 -85 76 -115 106
-30 30 -75 71 -100 91 -25 20 -139 114 -253 208 -115 94 -212 171 -216 171 -4
0 -23 -21 -44 -47 -20 -27 -49 -62 -64 -80 -16 -17 -37 -42 -47 -55 -57 -69
-127 -150 -177 -203 -31 -33 -82 -89 -115 -124 -70 -76 -114 -120 -266 -266
-275 -265 -594 -523 -923 -747 -679 -462 -1485 -825 -2270 -1022 -215 -54
-398 -94 -510 -112 -11 -1 -29 -5 -40 -7 -11 -3 -40 -8 -65 -11 -25 -3 -56 -8
-69 -11 -29 -5 -158 -23 -298 -40 -37 -4 -105 -11 -208 -20 -264 -24 -911 -24
-1120 0 -22 3 -69 7 -105 10 -98 8 -162 15 -190 20 -14 2 -47 7 -75 10 -126
15 -219 29 -325 50 -41 8 -88 17 -105 20 -16 2 -41 7 -55 10 -14 3 -36 7 -50
10 -14 3 -36 7 -50 10 -14 3 -43 7 -65 9 -22 3 -47 7 -55 10 -8 3 -26 7 -40
10 -14 2 -68 16 -120 31 -52 14 -103 28 -113 30 -10 2 -78 23 -150 45 -783
246 -1486 596 -2142 1068 -88 64 -348 265 -373 289 -7 7 -34 29 -60 50 -26 21
-49 40 -52 43 -3 3 -43 39 -90 80 -357 316 -758 751 -1000 1083 -19 26 -51 69
-71 95 -95 123 -407 604 -442 682 -4 8 -15 29 -25 45 -93 153 -261 493 -367
745 -110 262 -256 676 -316 900 -48 179 -79 300 -94 370 -9 41 -18 82 -20 90
-17 80 -55 274 -60 310 -3 25 -13 86 -21 135 -20 122 -22 132 -29 195 -10 101
-16 155 -20 190 -5 41 -13 126 -20 225 -3 38 -9 72 -13 75 -9 6 -9 11 -17 200
-12 295 -5 644 20 935 17 200 20 219 36 210 5 -4 9 -3 10 2 0 4 2 17 4 28 3
11 7 45 10 75 17 150 88 543 114 628 5 18 10 35 9 37 -2 26 118 473 168 622
14 43 27 83 28 88 2 6 6 17 9 25 3 8 13 35 21 60 43 132 160 429 221 565 123
274 272 567 367 724 21 34 38 64 38 66 0 8 227 367 252 400 5 6 38 53 74 105
314 452 749 938 1148 1285 120 105 171 147 276 231 280 223 614 449 907 615
18 11 50 29 71 41 216 124 634 321 887 418 61 23 119 46 130 51 28 13 370 128
430 144 28 8 93 26 145 40 52 15 102 28 110 30 8 2 40 10 70 18 178 51 650
139 860 162 30 3 71 8 90 10 87 11 183 20 350 32 206 15 883 7 1001 -12 13 -2
61 -6 106 -10 46 -3 92 -8 102 -10 11 -2 51 -7 88 -10 37 -4 75 -9 83 -10 37
-7 98 -16 125 -19 86 -11 410 -75 565 -112 374 -89 893 -263 1198 -400 31 -15
73 -33 92 -42 296 -130 759 -386 1050 -581 218 -147 582 -423 696 -528 16 -15
59 -53 94 -83 75 -63 76 -65 202 -187 92 -89 96 -91 114 -74 23 22 348 360
437 456 l66 70 -122 116 c-400 382 -877 749 -1352 1039 -72 44 -82 50 -200
118 -253 144 -567 300 -830 412 -469 201 -1004 370 -1470 466 -11 2 -31 6 -45
9 -14 3 -36 8 -50 10 -14 3 -61 12 -105 21 -44 8 -93 17 -110 19 -16 3 -41 7
-54 10 -14 2 -47 7 -74 10 -28 3 -53 8 -56 9 -3 2 -35 7 -71 11 -36 4 -74 9
-85 11 -23 4 -126 16 -275 30 -406 38 -1004 38 -1387 -1 -29 -3 -79 -7 -110
-11 -32 -3 -71 -7 -88 -9 -16 -2 -52 -7 -80 -10 -43 -5 -102 -13 -215 -30 -14
-3 -63 -11 -110 -19 -47 -8 -105 -17 -130 -21 -25 -3 -85 -15 -135 -27 -49
-11 -99 -21 -110 -24 -79 -16 -191 -43 -315 -76 -80 -22 -155 -42 -167 -44
-59 -11 -539 -170 -618 -204 -11 -5 -85 -35 -165 -66 -142 -55 -174 -69 -313
-133 -37 -17 -69 -31 -72 -31 -13 0 -483 -240 -510 -260 -5 -4 -35 -21 -65
-37 -219 -119 -583 -355 -830 -539 -144 -107 -331 -254 -404 -319 -13 -11 -38
-33 -57 -50 -130 -113 -208 -184 -312 -285 -65 -63 -122 -116 -126 -118 -4 -1
-78 70 -165 158 -93 95 -162 158 -169 154 -14 -7 256 261 353 351 191 177 457
397 674 557 50 37 96 71 101 76 6 4 34 23 63 42 28 19 52 38 52 42 0 5 4 8 9
8 5 0 58 33 117 74 765 519 1712 941 2612 1165 144 36 194 48 214 51 4 1 36 8
70 17 35 8 73 16 86 19 12 2 34 6 50 9 82 17 293 54 332 60 25 3 74 11 110 16
70 11 84 13 175 23 101 12 149 17 175 21 14 2 68 7 120 10 52 4 111 9 130 10
180 18 714 24 960 11 151 -8 331 -20 425 -30 17 -2 61 -6 98 -10 37 -4 76 -9
85 -11 9 -1 46 -6 82 -10 36 -4 74 -9 85 -11 10 -2 37 -6 60 -9 41 -6 72 -11
128 -20 17 -3 46 -8 62 -11 30 -5 187 -33 215 -39 246 -50 528 -121 757 -191
65 -20 125 -37 133 -39 21 -5 224 -75 355 -123 406 -147 804 -331 1220 -562
76 -42 254 -147 305 -180 25 -16 54 -34 65 -40 25 -12 55 -32 71 -45 7 -5 42
-28 78 -50 36 -22 66 -43 66 -47 0 -5 4 -8 10 -8 5 0 65 -39 132 -87 399 -282
741 -568 1066 -887 l102 -101 113 117 c63 65 180 186 262 269 l148 152 -115
111 c-174 168 -309 293 -418 386 -36 30 -67 57 -70 60 -3 3 -30 25 -60 50 -30
25 -57 47 -60 50 -3 3 -27 24 -55 45 -27 22 -52 43 -55 46 -10 13 -366 278
-464 347 -914 637 -1897 1090 -2977 1371 -64 16 -127 32 -140 34 -13 3 -64 15
-114 27 -86 20 -340 72 -415 84 -19 3 -48 8 -65 11 -144 26 -405 64 -555 79
-186 20 -257 25 -515 42 -73 5 -783 13 -787 9z m-5678 -3358 c0 -2 -10 -12
-22 -23 l-23 -19 19 23 c18 21 26 27 26 19z m-200 -220 c0 -2 -12 -14 -27 -28
l-28 -24 24 28 c23 25 31 32 31 24z m-2203 -5179 c-3 -8 -6 -5 -6 6 -1 11 2
17 5 13 3 -3 4 -12 1 -19z"/>
<path d="M10437 15924 c-1 -1 -92 -4 -202 -8 -110 -3 -211 -8 -225 -11 -14 -2
-61 -6 -106 -9 -44 -3 -96 -8 -115 -10 -19 -3 -86 -12 -149 -21 -63 -8 -126
-17 -140 -19 -14 -3 -41 -7 -60 -10 -19 -3 -45 -8 -56 -10 -12 -2 -39 -7 -60
-10 -22 -4 -46 -8 -54 -11 -8 -2 -26 -6 -40 -9 -144 -27 -412 -95 -585 -148
-55 -18 -104 -33 -110 -34 -35 -8 -343 -121 -460 -169 -582 -238 -1181 -596
-1649 -985 -217 -180 -558 -509 -722 -695 -75 -85 -299 -357 -324 -394 -8 -13
-21 -30 -28 -39 -68 -89 -132 -179 -132 -187 0 -6 41 -39 90 -74 l91 -62 -36
-47 c-76 -100 -178 -251 -223 -329 -26 -45 -50 -83 -54 -83 -4 0 -46 23 -93
51 -82 48 -87 50 -100 32 -25 -34 -223 -428 -280 -558 -89 -202 -241 -600
-260 -680 -1 -5 -5 -17 -8 -25 -25 -65 -107 -369 -141 -525 -38 -172 -38 -168
-42 -195 -3 -14 -7 -36 -10 -50 -24 -127 -48 -279 -59 -380 -6 -45 -16 -124
-20 -150 -2 -14 -7 -70 -10 -125 -4 -55 -9 -109 -11 -120 -3 -11 -7 -145 -11
-299 -4 -193 -2 -280 5 -285 12 -7 18 -48 27 -181 9 -128 25 -278 40 -377 3
-17 -1 -23 -16 -23 -21 0 -21 -17 -4 -130 2 -14 7 -47 10 -75 6 -54 22 -155
30 -195 3 -14 8 -41 11 -60 67 -413 261 -1042 455 -1480 56 -126 223 -460 278
-554 28 -49 51 -90 51 -92 0 -18 272 -433 381 -580 l69 -94 28 17 c15 10 35
25 46 35 18 16 21 13 80 -66 91 -122 279 -346 290 -346 6 0 -9 -19 -32 -43
l-42 -43 172 -174 c166 -166 381 -361 518 -470 36 -28 79 -62 95 -75 38 -31
288 -215 320 -235 13 -8 83 -54 157 -101 341 -221 789 -449 1142 -582 120 -45
478 -165 524 -175 l39 -9 19 74 c10 40 21 77 24 82 3 5 66 -6 140 -25 74 -18
194 -46 265 -60 72 -15 131 -28 133 -29 2 -2 -3 -34 -10 -71 -15 -86 -16 -109
-3 -110 14 0 116 -16 140 -20 35 -7 208 -32 265 -38 30 -4 73 -9 95 -11 280
-35 947 -40 1195 -10 19 2 64 7 100 10 36 3 81 7 100 10 19 2 58 7 85 10 28 4
57 8 65 10 8 2 35 6 60 9 25 3 55 8 66 10 12 2 37 7 55 10 19 3 44 8 55 10 12
2 38 7 58 10 19 3 57 11 83 17 27 6 59 13 73 15 14 2 54 12 89 20 36 9 73 17
83 19 10 2 53 14 96 25 42 12 84 23 92 25 8 2 15 4 15 5 0 1 8 3 17 5 16 3 67
18 168 50 62 19 310 105 335 115 11 4 28 11 37 14 16 5 16 9 -4 66 -11 34 -19
62 -17 63 2 1 42 15 89 30 109 37 198 70 285 108 228 99 298 130 410 186 197
99 564 313 573 335 2 4 8 8 13 8 18 0 405 279 525 379 17 14 40 33 50 41 17
13 107 88 228 190 110 92 276 250 276 262 0 25 -238 284 -775 843 -133 139
-554 571 -601 618 -27 27 -130 130 -228 228 -99 99 -183 178 -187 177 -5 -2
-43 -37 -86 -78 -435 -419 -975 -739 -1548 -919 -118 -37 -334 -92 -410 -105
-16 -2 -68 -11 -115 -19 -317 -56 -670 -66 -1044 -31 -16 1 -48 5 -70 8 -23 4
-59 9 -81 11 -60 7 -343 64 -401 81 -28 8 -60 16 -70 19 -37 8 -180 54 -289
92 -687 246 -1348 731 -1772 1300 -32 43 -61 80 -64 83 -3 3 -38 52 -76 110
-376 560 -598 1155 -677 1815 -41 341 -36 755 14 1065 5 30 11 71 14 90 3 19
8 46 11 60 3 14 8 41 11 60 12 68 65 286 85 350 11 36 22 72 24 80 9 43 107
305 154 413 11 26 21 49 21 52 2 13 154 301 200 380 87 148 246 378 328 477
238 284 447 488 700 681 92 70 263 189 307 213 11 6 79 45 150 86 123 70 189
104 315 161 82 37 164 74 170 75 3 0 19 6 35 12 248 94 468 152 809 214 17 3
56 8 89 11 32 4 68 8 80 11 48 9 251 18 417 18 198 0 344 -9 485 -29 22 -4 58
-8 80 -11 111 -13 409 -79 520 -114 141 -45 289 -97 333 -116 28 -12 52 -21
52 -19 0 2 27 -10 60 -26 33 -16 63 -29 66 -29 3 0 58 -26 122 -59 380 -191
706 -423 1005 -715 l50 -48 211 210 c116 116 236 233 266 260 30 28 69 63 86
79 17 15 73 66 124 113 51 47 109 101 130 120 21 19 77 71 125 115 49 44 94
85 100 92 10 9 15 9 24 0 9 -9 27 4 78 58 36 39 151 159 257 269 105 109 192
201 194 206 3 7 -172 174 -278 266 -25 21 -47 41 -50 44 -5 6 -102 85 -134
110 -10 8 -33 27 -50 41 -143 120 -682 489 -714 489 -3 0 -13 6 -21 14 -9 7
-45 29 -81 48 -102 56 -160 88 -230 128 -228 131 -531 264 -820 358 -250 82
-601 173 -684 178 -32 2 -66 6 -75 8 -9 3 -34 8 -56 11 -22 3 -49 7 -60 10
-11 2 -46 7 -78 10 -32 4 -67 8 -79 10 -11 3 -53 7 -92 11 -39 4 -78 8 -86 9
-8 1 -16 12 -18 23 -3 17 -11 22 -35 23 -18 0 -41 2 -52 4 -19 3 -91 11 -176
21 -76 8 -160 13 -324 19 -220 8 -316 11 -318 9z"/>
</g>
</svg>
